{"title":"Blitz.2011.XVID.Top-films.avi","uid":6582331,"size":749902750,"categoryP":"video","categoryS":"movies","magnet":"?xt=urn:btih:f3f5e8b82604d0de837237700b630e833dd6e910&amp;dn=Blitz.2011.XVID.Top-films.avi&amp;tr=udp%3A%2F%2Ftracker.openbittorrent.com%3A80&amp;tr=udp%3A%2F%2Fopen.demonii.com%3A1337&amp;tr=udp%3A%2F%2Ftracker.coppersurfer.tk%3A6969&amp;tr=udp%3A%2F%2Fexodus.desync.com%3A6969","seeders":0,"leechers":1,"uploader":"ceratanin","files":1,"time":1312464483,"description":"Blitz is a 2011 film directed by Elliott Lester and starring Jason Statham, Paddy Considine, Aidan Gillen and David Morrissey. It is based on the novel of the same name by Ken Bruen, which features his recurring characters Detective Sergeant Tom Brant and Chief Inspector James Roberts.\n\nQUALITY:  PERFECT 10/10\n\nAll details are here: \n\nFormat  | AVI           Language | ENGLISH  \nSource  | DVD PAL       Subs     | NONE \n\nQUALITY:  PERFECT 10/10\n\n- Video\nID                               : 0\nFormat                           : MPEG-4 Visual\nFormat profile                   : Advanced Simple@L5\nFormat settings, BVOP            : Yes\nFormat settings, QPel            : No\nFormat settings, GMC             : No warppoints\nFormat settings, Matrix          : Default (H.263)\nMuxing mode                      : Packed bitstream\nCodec ID                         : XVID\nCodec ID/Hint                    : XviD\nBit rate                         : 1 345 Kbps\nWidth                            : 720 pixels\nHeight                           : 314 pixels\nDisplay aspect ratio             : 2.25:1\nFrame rate                       : 29.970 fps\nColor space                      : YUV\nChroma subsampling               : 4:2:0\nBit depth                        : 8 bits\nScan type                        : Progressive\nCompression mode                 : Lossy\nBits/(Pixel*Frame)               : 0.198\nStream size                      : 1.19 GiB (87%)\nWriting library                  : XviD 1.1.0 (UTC 2005-11-22)\n\n- Audio\nID                               : 1\nFormat                           : AC-3\nFormat/Info                      : Audio Coding 3\nMode extension                   : CM (complete main)\nCodec ID                         : 2000\nBit rate mode                    : Constant\nBit rate                         : 192 Kbps\nChannel(s)                       : 2 channels\nChannel positions                : Front: L R\nSampling rate                    : 48.0 KHz\nBit depth                        : 16 bits\nCompression mode                 : Lossy\nStream size                      : 175 MiB (12%)\nAlignment                        : Aligned on interleaves\nInterleave, duration             : 33 ms (1.00 video frame)\nInterleave, preload duration     : 512 ms\t\n\n","torrent":{"xt":"urn:btih:f3f5e8b82604d0de837237700b630e833dd6e910","amp;dn":"Blitz.2011.XVID.Top-films.avi","amp;tr":["udp%3A%2F%2Ftracker.openbittorrent.com%3A80","udp%3A%2F%2Fopen.demonii.com%3A1337","udp%3A%2F%2Ftracker.coppersurfer.tk%3A6969","udp%3A%2F%2Fexodus.desync.com%3A6969"],"infoHash":"f3f5e8b82604d0de837237700b630e833dd6e910","infoHashBuffer":{"type":"Buffer","data":[243,245,232,184,38,4,208,222,131,114,55,112,11,99,14,131,61,214,233,16]},"announce":[],"urlList":[]}}